<?xml version="1.0" encoding="utf-8"?>
<!-- Generator: Adobe Illustrator 22.0.1, SVG Export Plug-In . SVG Version: 6.00 Build 0)  -->
<svg version="1.1" id="Layer_1" xmlns="http://www.w3.org/2000/svg" xmlns:xlink="http://www.w3.org/1999/xlink" x="0px" y="0px"
	 viewBox="0 0 286.6 320" style="enable-background:new 0 0 286.6 320;" xml:space="preserve">
<style type="text/css">
	.st0{clip-path:url(#SVGID_2_);fill:none;stroke:#FFFFFF;}
	.st1{clip-path:url(#SVGID_4_);fill:none;stroke:#FFFFFF;}
	.st2{clip-path:url(#SVGID_6_);fill:none;stroke:#FFFFFF;}
	.st3{clip-path:url(#SVGID_8_);fill:#FFFFFF;}
	.st4{clip-path:url(#SVGID_10_);fill:#FFFFFF;}
	.st5{clip-path:url(#SVGID_12_);fill:#FFFFFF;}
	.st6{clip-path:url(#SVGID_14_);fill:#FFFFFF;}
	.st7{clip-path:url(#SVGID_16_);fill:#FFFFFF;}
	.st8{clip-path:url(#SVGID_18_);fill:#FFFFFF;}
	.st9{clip-path:url(#SVGID_20_);fill:#FFFFFF;}
	.st10{clip-path:url(#SVGID_22_);fill:#FFFFFF;}
	.st11{clip-path:url(#SVGID_24_);fill:#FFFFFF;}
	.st12{clip-path:url(#SVGID_26_);fill:#FFFFFF;}
	.st13{clip-path:url(#SVGID_28_);fill:#FFFFFF;}
	.st14{clip-path:url(#SVGID_30_);fill:#FFFFFF;}
</style>
<g>
	<defs>
		<rect id="SVGID_1_" x="4.8" y="3.5" width="276.9" height="311.8"/>
	</defs>
	<clipPath id="SVGID_2_">
		<use xlink:href="#SVGID_1_"  style="overflow:visible;"/>
	</clipPath>
	<polygon class="st0" points="280.3,120.8 201.3,19.8 96,5 6.3,142.1 23.5,234.3 121.3,313.7 223.9,256.3 118,254.6 50.4,179.1 
		83.1,94.6 132.2,108.5 177.2,46.8 	"/>
</g>
<g>
	<defs>
		<rect id="SVGID_3_" x="5.9" y="2.5" width="275.7" height="311.8"/>
	</defs>
	<clipPath id="SVGID_4_">
		<use xlink:href="#SVGID_3_"  style="overflow:visible;"/>
	</clipPath>
	<polygon class="st1" points="280,120.4 224.7,256 118.1,254.6 119.6,312.3 23.7,233.4 49.9,179.8 7.7,141.2 82.1,97.6 96.3,4.3 
		177.4,47.2 200.5,19.7 	"/>
</g>
<g>
	<defs>
		<rect id="SVGID_5_" x="22.3" y="107" width="257.3" height="149.2"/>
	</defs>
	<clipPath id="SVGID_6_">
		<use xlink:href="#SVGID_5_"  style="overflow:visible;"/>
	</clipPath>
	<polygon class="st2" points="277.3,120.1 117,254.7 24,234.6 48.5,181.2 130.9,108.5 	"/>
</g>
<g>
	<defs>
		<rect id="SVGID_7_" x="125" y="101.9" width="12.6" height="12.6"/>
	</defs>
	<clipPath id="SVGID_8_">
		<use xlink:href="#SVGID_7_"  style="overflow:visible;"/>
	</clipPath>
	<circle class="st3" cx="131.3" cy="108.2" r="5.3"/>
</g>
<g>
	<defs>
		<rect id="SVGID_9_" x="75.8" y="91.3" width="12.6" height="12.6"/>
	</defs>
	<clipPath id="SVGID_10_">
		<use xlink:href="#SVGID_9_"  style="overflow:visible;"/>
	</clipPath>
	<circle class="st4" cx="82.1" cy="97.6" r="5.3"/>
</g>
<g>
	<defs>
		<rect id="SVGID_11_" y="134.8" width="12.6" height="12.6"/>
	</defs>
	<clipPath id="SVGID_12_">
		<use xlink:href="#SVGID_11_"  style="overflow:visible;"/>
	</clipPath>
	<path class="st5" d="M2.6,137.3c-2.1,2.1-2.1,5.4,0,7.5c2.1,2.1,5.4,2.1,7.5,0c2.1-2.1,2.1-5.4,0-7.5S4.6,135.3,2.6,137.3z"/>
</g>
<g>
	<defs>
		<rect id="SVGID_13_" x="43.5" y="173.1" width="12.6" height="12.6"/>
	</defs>
	<clipPath id="SVGID_14_">
		<use xlink:href="#SVGID_13_"  style="overflow:visible;"/>
	</clipPath>
	<circle class="st6" cx="49.8" cy="179.4" r="5.3"/>
</g>
<g>
	<defs>
		<rect id="SVGID_15_" x="17.7" y="228.7" width="12.6" height="12.6"/>
	</defs>
	<clipPath id="SVGID_16_">
		<use xlink:href="#SVGID_15_"  style="overflow:visible;"/>
	</clipPath>
	<circle class="st7" cx="24" cy="235" r="5.3"/>
</g>
<g>
	<defs>
		<rect id="SVGID_17_" x="114.4" y="248.1" width="12.6" height="12.6"/>
	</defs>
	<clipPath id="SVGID_18_">
		<use xlink:href="#SVGID_17_"  style="overflow:visible;"/>
	</clipPath>
	<circle class="st8" cx="120.7" cy="254.4" r="5.3"/>
</g>
<g>
	<defs>
		<rect id="SVGID_19_" x="90.4" width="12.6" height="12.6"/>
	</defs>
	<clipPath id="SVGID_20_">
		<use xlink:href="#SVGID_19_"  style="overflow:visible;"/>
	</clipPath>
	<circle class="st9" cx="96.7" cy="6.3" r="5.3"/>
</g>
<g>
	<defs>
		<rect id="SVGID_21_" x="194.1" y="14.6" width="12.6" height="12.6"/>
	</defs>
	<clipPath id="SVGID_22_">
		<use xlink:href="#SVGID_21_"  style="overflow:visible;"/>
	</clipPath>
	<circle class="st10" cx="200.4" cy="20.9" r="5.3"/>
</g>
<g>
	<defs>
		<rect id="SVGID_23_" x="274" y="112.5" width="12.6" height="12.6"/>
	</defs>
	<clipPath id="SVGID_24_">
		<use xlink:href="#SVGID_23_"  style="overflow:visible;"/>
	</clipPath>
	<circle class="st11" cx="280.3" cy="118.8" r="5.3"/>
</g>
<g>
	<defs>
		<rect id="SVGID_25_" x="216" y="248.1" width="12.6" height="12.6"/>
	</defs>
	<clipPath id="SVGID_26_">
		<use xlink:href="#SVGID_25_"  style="overflow:visible;"/>
	</clipPath>
	<path class="st12" d="M218.6,250.7c-2.1,2.1-2.1,5.4,0,7.5c2.1,2.1,5.4,2.1,7.5,0c2.1-2.1,2.1-5.4,0-7.5
		C224,248.6,220.6,248.6,218.6,250.7z"/>
</g>
<g>
	<defs>
		<rect id="SVGID_27_" x="114.4" y="307.4" width="12.6" height="12.6"/>
	</defs>
	<clipPath id="SVGID_28_">
		<use xlink:href="#SVGID_27_"  style="overflow:visible;"/>
	</clipPath>
	<path class="st13" d="M116.9,310c-2.1,2.1-2.1,5.4,0,7.5c2.1,2.1,5.4,2.1,7.5,0c2.1-2.1,2.1-5.4,0-7.5
		C122.3,307.9,119,307.9,116.9,310z"/>
</g>
<g>
	<defs>
		<rect id="SVGID_29_" x="171.3" y="39.9" width="12.6" height="12.6"/>
	</defs>
	<clipPath id="SVGID_30_">
		<use xlink:href="#SVGID_29_"  style="overflow:visible;"/>
	</clipPath>
	<path class="st14" d="M173.8,42.4c-2.1,2.1-2.1,5.4,0,7.5c2.1,2.1,5.4,2.1,7.5,0c2.1-2.1,2.1-5.4,0-7.5
		C179.3,40.3,175.9,40.3,173.8,42.4z"/>
</g>
</svg>
