<?xml version="1.0" encoding="utf-8"?>
<!-- Generator: Adobe Illustrator 22.0.1, SVG Export Plug-In . SVG Version: 6.00 Build 0)  -->
<svg version="1.1" id="Layer_1" xmlns="http://www.w3.org/2000/svg" xmlns:xlink="http://www.w3.org/1999/xlink" x="0px" y="0px"
	 viewBox="0 0 193.9 200" style="enable-background:new 0 0 193.9 200;fill: #999999;" xml:space="preserve">
<g>
	<path d="M187.6,112.6h-18.8v-6.4h18.8l-0.1-68.7L6.3,37.6l0.1,68.7l12.4-0.1v6.4H6.3c-1.7,0-3.3-0.7-4.5-1.9
		c-1.2-1.2-1.9-2.8-1.9-4.5V37.5c0-1.7,0.7-3.3,1.9-4.5s2.8-1.9,4.5-1.9h181.2c1.7,0,3.3,0.7,4.5,1.9c1.2,1.2,1.9,2.8,1.9,4.5v68.8
		c0,1.7-0.7,3.3-1.9,4.5C190.9,111.9,189.3,112.6,187.6,112.6z"/>
	<rect x="68.8" y="106.2" width="56.2" height="6.4"/>
</g>
<path d="M100.2,34.4h-6.4v-6.2c0-0.8-0.3-1.6-0.9-2.1c-0.6-0.6-1.3-0.9-2.1-0.9H72c-2.5,0-4.9-1-6.7-2.8c-1.8-1.8-2.8-4.2-2.8-6.7
	s1-4.9,2.8-6.7c1.8-1.8,4.2-2.8,6.7-2.8h37.5c0.8,0,1.6-0.3,2.1-0.9c0.6-0.6,0.9-1.3,0.9-2.1V0h6.4v3.1c0,2.5-1,4.9-2.8,6.7
	s-4.2,2.8-6.7,2.8H72c-0.8,0-1.6,0.3-2.1,0.9c-0.6,0.6-0.9,1.3-0.9,2.1s0.3,1.6,0.9,2.1c0.6,0.6,1.3,0.9,2.1,0.9h18.8
	c2.5,0,4.9,1,6.7,2.8c1.8,1.8,2.8,4.2,2.8,6.7L100.2,34.4L100.2,34.4z"/>
<rect x="68.8" y="43.7" width="6.2" height="6.4"/>
<rect x="81.3" y="43.7" width="6.2" height="6.4"/>
<rect x="93.8" y="43.7" width="6.2" height="6.4"/>
<rect x="106.3" y="43.7" width="6.2" height="6.4"/>
<rect x="118.8" y="43.7" width="6.2" height="6.4"/>
<rect x="131.3" y="43.7" width="6.2" height="6.4"/>
<rect x="143.8" y="43.7" width="6.2" height="6.4"/>
<rect x="156.3" y="43.7" width="6.2" height="6.4"/>
<rect x="168.8" y="43.7" width="6.2" height="6.4"/>
<rect x="75.1" y="56.2" width="6.2" height="6.4"/>
<rect x="87.6" y="56.2" width="6.2" height="6.4"/>
<rect x="100.1" y="56.2" width="6.2" height="6.4"/>
<rect x="112.6" y="56.2" width="6.2" height="6.4"/>
<rect x="125.1" y="56.2" width="6.2" height="6.4"/>
<rect x="137.6" y="56.2" width="6.2" height="6.4"/>
<rect x="150.1" y="56.2" width="6.2" height="6.4"/>
<rect x="162.6" y="56.2" width="6.2" height="6.4"/>
<rect x="175.1" y="56.2" width="6.2" height="6.4"/>
<rect x="68.8" y="68.7" width="6.2" height="6.4"/>
<rect x="81.3" y="68.7" width="6.2" height="6.4"/>
<rect x="93.8" y="68.7" width="6.2" height="6.4"/>
<rect x="106.3" y="68.7" width="6.2" height="6.4"/>
<rect x="118.8" y="68.7" width="6.2" height="6.4"/>
<rect x="131.3" y="68.7" width="6.2" height="6.4"/>
<rect x="143.8" y="68.7" width="6.2" height="6.4"/>
<rect x="156.3" y="68.7" width="6.2" height="6.4"/>
<rect x="168.8" y="68.7" width="6.2" height="6.4"/>
<rect x="75.1" y="81.2" width="6.2" height="6.4"/>
<rect x="87.6" y="81.2" width="6.2" height="6.4"/>
<rect x="100.1" y="81.2" width="6.2" height="6.4"/>
<rect x="112.6" y="81.2" width="6.2" height="6.4"/>
<rect x="162.6" y="81.2" width="6.2" height="6.4"/>
<rect x="150.1" y="81.2" width="6.2" height="6.4"/>
<rect x="175.1" y="81.2" width="6.2" height="6.4"/>
<rect x="81.3" y="93.7" width="31.2" height="6.4"/>
<g>
	<g>
		<g>
			<path d="M14.2,37.6v38.6c0,0.6,0.5,1.1,1.1,1.1h3.3v28.9h2.1V77.3H24c0.6,0,1.1-0.5,1.1-1.1V37.6H14.2z"/>
		</g>
	</g>
	<g>
		<g>
			<path d="M33,37.6v38.6c0,0.6,0.5,1.1,1.1,1.1h3.3v13.8h2V77.3h3.3c0.6,0,1.1-0.5,1.1-1.1V37.6H33z"/>
		</g>
	</g>
	<g>
		<g>
			<path d="M51.6,37.6v38.6c0,0.6,0.5,1.1,1.1,1.1H56v28.9h2.2V77.3h3.3c0.6,0,1.1-0.5,1.1-1.1V37.6H51.6z"/>
		</g>
	</g>
</g>
<g>
	<g>
		<g>
			<path d="M128.3,137.5h-6.4V90.6c0-2.5,1-4.9,2.8-6.7c1.8-1.8,4.2-2.8,6.7-2.8s4.9,1,6.7,2.8s2.8,4.2,2.8,6.7v31.2h-6.4V90.6
				c0-0.8-0.3-1.6-0.9-2.2c-1.1-1.1-3.1-1.1-4.3,0c-0.6,0.6-0.9,1.3-0.9,2.1L128.3,137.5L128.3,137.5z"/>
			<path d="M153.3,121.9h-6.4v-11.1c0-0.8-0.3-1.6-0.9-2.2c-1.1-1.1-3.1-1.1-4.3,0c-0.6,0.6-0.9,1.3-0.9,2.1v11.1h-6.4v-11.1
				c0-2.5,1-4.9,2.8-6.7c1.8-1.8,4.2-2.8,6.7-2.8s4.9,1,6.7,2.8s2.8,4.2,2.8,6.7L153.3,121.9L153.3,121.9z"/>
			<path d="M165.8,121.9h-6.4v-11.1c0-0.8-0.3-1.6-0.9-2.2c-1.1-1.1-3.1-1.1-4.3,0c-0.6,0.6-0.9,1.3-0.9,2.1v11.1h-6.4v-11.1
				c0-2.5,1-4.9,2.8-6.7c1.8-1.8,4.2-2.8,6.7-2.8s4.9,1,6.7,2.8s2.8,4.2,2.8,6.7L165.8,121.9L165.8,121.9z"/>
			<path d="M168.9,178.1h-6.4v-10l9.4-25v-27.5c0-0.8-0.3-1.6-0.9-2.1c-1.1-1.1-3.1-1.1-4.3,0c-0.6,0.6-0.9,1.3-0.9,2.1v6.2h-6.4
				v-6.2c0-2.5,1-4.9,2.8-6.7c1.8-1.8,4.2-2.8,6.7-2.8s4.9,1,6.7,2.8s2.8,4.2,2.8,6.7v28.7l-9.4,25L168.9,178.1L168.9,178.1z"/>
			<path d="M131.4,178.1H125V170c-3.5-3.8-15.6-17.5-15.6-29.4V128c0-2.5,1-4.9,2.8-6.7c1.8-1.8,4.2-2.8,6.7-2.8s4.9,1,6.7,2.8
				c1.8,1.8,2.8,4.2,2.8,6.7H122c0-0.8-0.3-1.6-0.9-2.1c-1.1-1.1-3.1-1.1-4.3,0c-0.6,0.6-0.9,1.3-0.9,2.1v12.6
				c0,9.1,10.6,21.7,14.7,25.8l0.9,0.9L131.4,178.1z"/>
		</g>
		<g>
			<path d="M172.1,200h-6.4v-18.8l-37.4,0.1l0.1,18.7H122v-18.8c0-1.7,0.7-3.3,1.9-4.5c1.2-1.2,2.8-1.9,4.5-1.9h37.5
				c1.7,0,3.3,0.7,4.5,1.9s1.9,2.8,1.9,4.5V200H172.1z"/>
		</g>
	</g>
	<g>
		<g>
			<path d="M72.1,137.5h-6.4V96.9c0-0.8-0.3-1.6-0.9-2.2c-1.1-1.1-3.1-1.1-4.3,0c-0.6,0.6-0.9,1.3-0.9,2.1v25h-6.4v-25
				c0-2.5,1-4.9,2.8-6.7c1.8-1.8,4.2-2.8,6.7-2.8c2.5,0,4.9,1,6.7,2.8s2.8,4.2,2.8,6.7C72.1,96.9,72.1,137.5,72.1,137.5z"/>
			<path d="M59.6,121.9h-6.4V90.6c0-0.8-0.3-1.6-0.9-2.2c-1.1-1.1-3.1-1.1-4.3,0c-0.6,0.6-0.9,1.3-0.9,2.1v31.2h-6.4V90.6
				c0-2.5,1-4.9,2.8-6.7c1.8-1.8,4.2-2.8,6.7-2.8s4.9,1,6.7,2.8s2.8,4.2,2.8,6.7L59.6,121.9L59.6,121.9z"/>
			<path d="M47.1,121.9h-6.4v-25c0-0.8-0.3-1.6-0.9-2.1c-1.1-1.1-3.1-1.1-4.3,0c-0.6,0.6-0.9,1.3-0.9,2.1v25h-6.4v-25
				c0-2.5,1-4.9,2.8-6.7c1.8-1.8,4.2-2.8,6.7-2.8s4.9,1,6.7,2.8s2.8,4.2,2.8,6.7L47.1,121.9L47.1,121.9z"/>
			<path d="M31.4,178.1H25v-8.8l-9.4-25v-41.2c0-2.5,1-4.9,2.8-6.7c1.8-1.8,4.2-2.8,6.7-2.8s4.9,1,6.7,2.8c1.8,1.8,2.8,4.2,2.8,6.7
				v18.8h-6.4v-18.8c0-0.8-0.3-1.6-0.9-2.1c-1.1-1.1-3.1-1.1-4.3,0c-0.6,0.6-0.9,1.3-0.9,2.1v40l9.4,25L31.4,178.1L31.4,178.1z"/>
			<path d="M68.9,178.1h-6.4v-10.7l0.9-0.9c4.1-4.1,14.7-16.7,14.7-25.8v-12.6c0-0.8-0.3-1.6-0.9-2.1c-1.1-1.1-3.1-1.1-4.3,0
				c-0.6,0.6-0.9,1.3-0.9,2.1h-6.4c0-2.5,1-4.9,2.8-6.7c1.8-1.8,4.2-2.8,6.7-2.8s4.9,1,6.7,2.8c1.8,1.8,2.8,4.2,2.8,6.7v12.6
				c0,11.9-12.1,25.6-15.6,29.4L68.9,178.1L68.9,178.1z"/>
		</g>
		<g>
			<path d="M72.1,200h-6.4v-18.8l-37.4,0.1l0.1,18.7H22v-18.8c0-1.7,0.7-3.3,1.9-4.5c1.2-1.2,2.8-1.9,4.5-1.9h37.5
				c1.7,0,3.3,0.7,4.5,1.9s1.9,2.8,1.9,4.5L72.1,200L72.1,200z"/>
		</g>
	</g>
</g>
</svg>
