<svg id="my-svg" data-name="Layer 1" xmlns="http://www.w3.org/2000/svg" viewBox="0 0 195 201"><defs><style>.cls-1{fill:none;stroke:#000;stroke-miterlimit:10;}</style></defs><title>ivanconcept logo stroke</title><path class="cls-1" d="M187.6,112.6h-9.7a9.28,9.28,0,0,0-9-6.5c-4.6,0,18.7.1,18.7.1l-.1-68.7L6.3,37.6l.1,68.7,9.2-.1v6.4H6.3a6.36,6.36,0,0,1-4.5-1.9,6.36,6.36,0,0,1-1.9-4.5V37.5A6.36,6.36,0,0,1,1.8,33a6.36,6.36,0,0,1,4.5-1.9H187.5a6.49,6.49,0,0,1,6.4,6.4v68.8a6.36,6.36,0,0,1-1.9,4.5A6.28,6.28,0,0,1,187.6,112.6Z" transform="translate(0.6 0.5)"/><rect class="cls-1" x="72.8" y="106.7" width="49.7" height="6.4"/><path class="cls-1" d="M100.2,31.1H93.8V28.2a2.72,2.72,0,0,0-.9-2.1,2.88,2.88,0,0,0-2.1-.9H72a9.5,9.5,0,0,1,0-19h37.5a2.72,2.72,0,0,0,2.1-.9,2.88,2.88,0,0,0,.9-2.1V0h6.4V3.1a9.47,9.47,0,0,1-2.8,6.7,9.47,9.47,0,0,1-6.7,2.8H72a2.72,2.72,0,0,0-2.1.9,2.88,2.88,0,0,0-.9,2.1,2.72,2.72,0,0,0,.9,2.1,2.88,2.88,0,0,0,2.1.9H90.8a9.56,9.56,0,0,1,9.5,9.5l-.1,3Z" transform="translate(0.6 0.5)"/><rect class="cls-1" x="69.4" y="44.2" width="6.2" height="6.4"/><rect class="cls-1" x="81.9" y="44.2" width="6.2" height="6.4"/><rect class="cls-1" x="94.4" y="44.2" width="6.2" height="6.4"/><rect class="cls-1" x="106.9" y="44.2" width="6.2" height="6.4"/><rect class="cls-1" x="119.4" y="44.2" width="6.2" height="6.4"/><rect class="cls-1" x="131.9" y="44.2" width="6.2" height="6.4"/><rect class="cls-1" x="144.4" y="44.2" width="6.2" height="6.4"/><rect class="cls-1" x="156.9" y="44.2" width="6.2" height="6.4"/><rect class="cls-1" x="169.4" y="44.2" width="6.2" height="6.4"/><rect class="cls-1" x="75.7" y="56.7" width="6.2" height="6.4"/><rect class="cls-1" x="88.2" y="56.7" width="6.2" height="6.4"/><rect class="cls-1" x="100.7" y="56.7" width="6.2" height="6.4"/><rect class="cls-1" x="113.2" y="56.7" width="6.2" height="6.4"/><rect class="cls-1" x="125.7" y="56.7" width="6.2" height="6.4"/><rect class="cls-1" x="138.2" y="56.7" width="6.2" height="6.4"/><rect class="cls-1" x="150.7" y="56.7" width="6.2" height="6.4"/><rect class="cls-1" x="163.2" y="56.7" width="6.2" height="6.4"/><rect class="cls-1" x="175.7" y="56.7" width="6.2" height="6.4"/><rect class="cls-1" x="69.4" y="69.2" width="6.2" height="6.4"/><rect class="cls-1" x="81.9" y="69.2" width="6.2" height="6.4"/><rect class="cls-1" x="94.4" y="69.2" width="6.2" height="6.4"/><rect class="cls-1" x="106.9" y="69.2" width="6.2" height="6.4"/><rect class="cls-1" x="119.4" y="69.2" width="6.2" height="6.4"/><rect class="cls-1" x="131.9" y="69.2" width="6.2" height="6.4"/><rect class="cls-1" x="144.4" y="69.2" width="6.2" height="6.4"/><rect class="cls-1" x="156.9" y="69.2" width="6.2" height="6.4"/><rect class="cls-1" x="169.4" y="69.2" width="6.2" height="6.4"/><rect class="cls-1" x="75.7" y="81.7" width="6.2" height="6.4"/><rect class="cls-1" x="88.2" y="81.7" width="6.2" height="6.4"/><rect class="cls-1" x="100.7" y="81.7" width="6.2" height="6.4"/><rect class="cls-1" x="113.2" y="81.7" width="6.2" height="6.4"/><rect class="cls-1" x="163.2" y="81.7" width="6.2" height="6.4"/><rect class="cls-1" x="150.7" y="81.7" width="6.2" height="6.4"/><rect class="cls-1" x="175.7" y="81.7" width="6.2" height="6.4"/><rect class="cls-1" x="81.9" y="94.2" width="31.2" height="6.4"/><path class="cls-1" d="M14.2,37.6V76.2a1.11,1.11,0,0,0,1.1,1.1h3.3V96.4l2.1-1.7V77.3H24a1.11,1.11,0,0,0,1.1-1.1V37.6Z" transform="translate(0.6 0.5)"/><path class="cls-1" d="M33,37.6V76.2a1.11,1.11,0,0,0,1.1,1.1h3.3V87.4h2V77.3h3.3a1.11,1.11,0,0,0,1.1-1.1V37.6Z" transform="translate(0.6 0.5)"/><path class="cls-1" d="M51.6,37.6V76.2a1.11,1.11,0,0,0,1.1,1.1H56v5.8l2.2,2V77.3h3.3a1.11,1.11,0,0,0,1.1-1.1V37.6Z" transform="translate(0.6 0.5)"/><path class="cls-1" d="M128.3,128h-6.4V90.6a9.48,9.48,0,0,1,16.2-6.7,9,9,0,0,1,2.7,6.7v31.2h-6.3V90.6a3.1,3.1,0,0,0-.9-2.2,3.21,3.21,0,0,0-4.3,0,2.88,2.88,0,0,0-.9,2.1l-.1,37.5Z" transform="translate(0.6 0.5)"/><path class="cls-1" d="M140.9,101.7s.5-.5,3-.5a9.56,9.56,0,0,1,9.5,9.5l-.1,11.2h-6.4V110.8a3.1,3.1,0,0,0-.9-2.2,3.21,3.21,0,0,0-4.3,0,2.88,2.88,0,0,0-.9,2.1v11.1" transform="translate(0.6 0.5)"/><path class="cls-1" d="M150.1,103.6a8.21,8.21,0,0,1,6.3-2.4,9.56,9.56,0,0,1,9.5,9.5l-.1,11.2h-6.4V110.8a3.1,3.1,0,0,0-.9-2.2,3.21,3.21,0,0,0-4.3,0,2.88,2.88,0,0,0-.9,2.1v11.1" transform="translate(0.6 0.5)"/><path class="cls-1" d="M162.5,174.8v-6.7l9.4-25V115.6a2.72,2.72,0,0,0-.9-2.1,3.21,3.21,0,0,0-4.3,0,2.88,2.88,0,0,0-.9,2.1v6.2" transform="translate(0.6 0.5)"/><path class="cls-1" d="M165.1,106.9a7.73,7.73,0,0,1,3.8-.8,9.56,9.56,0,0,1,9.5,9.5v28.7l-9.4,25-.1,6.3v-.8" transform="translate(0.6 0.5)"/><path class="cls-1" d="M125,175.8V170c-3.5-3.8-15.6-17.5-15.6-29.4V128a9.56,9.56,0,0,1,9.5-9.5c2.5,0,3,.5,3,.5" transform="translate(0.6 0.5)"/><path class="cls-1" d="M122,128a2.72,2.72,0,0,0-.9-2.1,3.21,3.21,0,0,0-4.3,0,2.88,2.88,0,0,0-.9,2.1v12.6c0,9.1,10.6,21.7,14.7,25.8l.9.9-.1,7.5" transform="translate(0.6 0.5)"/><path class="cls-1" d="M172.1,200h-6.4V181.2l-37.4.1.1,18.7H122V181.2a6.49,6.49,0,0,1,6.4-6.4h37.5a6.49,6.49,0,0,1,6.4,6.4V200Z" transform="translate(0.6 0.5)"/><path class="cls-1" d="M72.1,137.5H65.7V96.9a3.1,3.1,0,0,0-.9-2.2,3.21,3.21,0,0,0-4.3,0,2.88,2.88,0,0,0-.9,2.1v25H53.2v-25a9.5,9.5,0,0,1,19,0C72.1,96.9,72.1,137.5,72.1,137.5Z" transform="translate(0.6 0.5)"/><path class="cls-1" d="M53.2,121.9V90.6a3.1,3.1,0,0,0-.9-2.2,3.21,3.21,0,0,0-4.3,0,2.88,2.88,0,0,0-.9,2.1v31.2H40.7V90.6a9.48,9.48,0,0,1,16.2-6.7,10.05,10.05,0,0,1,2.4,4" transform="translate(0.6 0.5)"/><path class="cls-1" d="M40.7,121.9v-25a2.72,2.72,0,0,0-.9-2.1,3.21,3.21,0,0,0-4.3,0,2.88,2.88,0,0,0-.9,2.1v25H28.2v-25a9.56,9.56,0,0,1,9.5-9.5,6.68,6.68,0,0,1,3.4.6" transform="translate(0.6 0.5)"/><path class="cls-1" d="M25,175.8v-6.5l-9.4-25V103.1a9.56,9.56,0,0,1,9.5-9.5,6.52,6.52,0,0,1,3.5.7" transform="translate(0.6 0.5)"/><path class="cls-1" d="M28.2,121.9V103.1a2.72,2.72,0,0,0-.9-2.1,3.21,3.21,0,0,0-4.3,0,2.88,2.88,0,0,0-.9,2.1v40l9.4,25s-.1,5-.1,6.7h0" transform="translate(0.6 0.5)"/><path class="cls-1" d="M62.5,174.8v-7.4l.9-.9c4.1-4.1,14.7-16.7,14.7-25.8V128.1a2.72,2.72,0,0,0-.9-2.1,3.21,3.21,0,0,0-4.3,0,2.17,2.17,0,0,0-.8,1.8" transform="translate(0.6 0.5)"/><path class="cls-1" d="M72.1,119.1s.5-.5,3-.5a9.56,9.56,0,0,1,9.5,9.5v12.6c0,11.9-12.1,25.6-15.6,29.4,0,0-.1,4.3-.1,5.5v-.8" transform="translate(0.6 0.5)"/><path class="cls-1" d="M72.1,200H65.7V181.2l-37.4.1.1,18.7H22V181.2a6.49,6.49,0,0,1,6.4-6.4H65.9a6.49,6.49,0,0,1,6.4,6.4L72.1,200Z" transform="translate(0.6 0.5)"/></svg>